<?xml version="1.0" encoding="UTF-8"?>
<svg id="Objects" xmlns="http://www.w3.org/2000/svg" version="1.1" viewBox="0 0 2200 2200">
  <!-- Generator: Adobe Illustrator 29.2.1, SVG Export Plug-In . SVG Version: 2.1.0 Build 116)  -->
  <defs>
    <style>
      .st0, .st1 {
        fill: #8bc543;
      }

      .st1 {
        stroke: #006738;
        stroke-miterlimit: 10;
        stroke-width: 12.54px;
      }

      .st2 {
        fill: #006738;
      }
    </style>
  </defs>
  <g>
    <polygon class="st1" points="1644.4 924.93 648.03 1519.51 362.32 1040.74 1358.68 446.16 1644.4 924.93"/>
    <path class="st2" d="M1195.59,868.13c63.34,106.17,28.66,243.58-77.51,306.93-106.17,63.34-243.61,28.64-306.95-77.51-63.35-106.16-28.64-243.57,77.53-306.94,106.15-63.34,243.56-28.64,306.92,77.52Z"/>
    <path class="st2" d="M362.32,1040.74l75.93,127.25c70.28-41.94,93.27-132.91,51.31-203.18l-127.24,75.93Z"/>
    <g>
      <path class="st0" d="M1013.05,907.19c-9.97-13.83-27.8-13.08-53.56,2.3-25.82,15.41-34.63,30-26.42,43.78,5.03,8.43,12.83,12.05,23.41,10.88,10.61-1.17,29.91-6.8,57.93-17.02,28.03-10.19,51.3-13.16,69.82-8.89,18.54,4.25,33.22,15.43,44.03,33.55,12.6,21.12,12.89,43.07.85,65.85-12.01,22.76-30.21,41.42-54.58,55.96-58.9,35.15-105.92,32.63-141.05-7.58l46.39-33.03c17.72,21.51,42.21,22.94,73.42,4.32,29.26-17.46,37.97-36.09,26.14-55.92-5.23-8.79-12.68-13.23-22.37-13.28-9.64-.06-29.12,5.16-58.38,15.7-29.27,10.52-52.88,14-70.82,10.44-17.89-3.6-31.54-13.19-40.87-28.87-10.06-16.81-11.05-35.53-3.03-56.12,8-20.55,26.29-39.36,54.86-56.41,56.56-33.76,97.41-32.7,122.5,3.14l-48.26,31.2Z"/>
      <rect class="st0" x="903.98" y="830.5" width="54.07" height="49.2" transform="translate(-306.67 597.95) rotate(-30.83)"/>
      <polygon class="st0" points="1117.26 1114.43 1070.82 1142.15 1045.6 1099.89 1092.05 1072.19 1117.26 1114.43"/>
    </g>
    <path class="st2" d="M643.49,1511.92l127.26-75.94c-41.94-70.29-132.91-93.26-203.2-51.31l75.94,127.25Z"/>
    <path class="st2" d="M1639.87,917.34l-75.95-127.25c-70.28,41.92-93.24,132.9-51.3,203.19l127.24-75.94Z"/>
    <path class="st2" d="M1358.68,446.16l-127.24,75.93c41.95,70.27,132.91,93.25,203.19,51.32l-75.94-127.25Z"/>
    <path class="st2" d="M727.55,1147.43c14.31,23.97,6.48,54.99-17.5,69.28-23.95,14.3-54.97,6.48-69.27-17.49-14.31-23.97-6.46-54.99,17.48-69.29,23.96-14.29,54.98-6.45,69.28,17.5Z"/>
    <path class="st2" d="M1365.96,766.47c14.29,23.96,6.46,54.97-17.5,69.27-23.95,14.3-54.98,6.46-69.29-17.48-14.3-23.98-6.46-54.99,17.5-69.29,23.97-14.3,54.97-6.46,69.28,17.5Z"/>
  </g>
  <g>
    <polygon class="st1" points="1715.57 1163.43 642.76 1605.52 430.35 1090 1503.11 647.95 1715.57 1163.43"/>
    <path class="st2" d="M1279.91,1041.45c47.09,114.29-7.36,245.14-121.66,292.25-114.33,47.1-245.17-7.38-292.26-121.69-47.12-114.3,7.37-245.15,121.68-292.25,114.32-47.1,245.14,7.37,292.25,121.68Z"/>
    <path class="st2" d="M430.35,1090l56.45,137.03c75.67-31.19,111.73-117.8,80.56-193.47l-137.01,56.44Z"/>
    <g>
      <path class="st0" d="M1093.61,1053.31c-7.82-15.12-25.57-16.99-53.31-5.56-27.8,11.46-38.66,24.6-32.53,39.42,3.73,9.07,10.9,13.82,21.55,14.22,10.66.39,30.59-2.37,59.79-8.35,29.24-5.98,52.68-5.49,70.37,1.45,17.7,6.93,30.59,20.14,38.64,39.65,9.36,22.73,6.42,44.5-8.81,65.26-15.2,20.75-35.98,36.54-62.19,47.34-63.42,26.13-109.55,16.75-138.43-28.18l50.74-25.86c14.39,23.88,38.4,28.89,72.01,15.05,31.47-12.97,42.83-30.15,34.04-51.48-3.88-9.47-10.62-14.96-20.19-16.41-9.52-1.49-29.56.84-60.07,6.96-30.48,6.09-54.36,6.1-71.57-.07-17.17-6.16-29.26-17.67-36.22-34.53-7.46-18.12-5.7-36.78,5.27-55.97,10.9-19.16,31.78-35.08,62.53-47.75,60.91-25.11,101.14-18.07,120.7,21.05l-52.32,23.77Z"/>
      <polygon class="st0" points="1054.48 1002.22 1004.48 1022.82 985.75 977.34 1035.75 956.72 1054.48 1002.22"/>
      <polygon class="st0" points="1166.34 1273.61 1116.32 1294.2 1097.56 1248.72 1147.58 1228.12 1166.34 1273.61"/>
    </g>
    <path class="st2" d="M639.39,1597.34l137.03-56.46c-31.19-75.67-117.81-111.75-193.48-80.55l56.46,137.02Z"/>
    <path class="st2" d="M1712.17,1155.27l-56.45-137.03c-75.65,31.19-111.74,117.81-80.55,193.48l136.99-56.45Z"/>
    <path class="st2" d="M1503.11,647.95l-137,56.46c31.19,75.67,117.8,111.73,193.48,80.54l-56.48-136.99Z"/>
    <path class="st2" d="M775.98,1249.11c10.63,25.81-1.66,55.34-27.47,65.96-25.77,10.63-55.32-1.65-65.94-27.46-10.64-25.79,1.66-55.35,27.45-65.97,25.81-10.63,55.32,1.68,65.95,27.47Z"/>
    <path class="st2" d="M1463.34,965.85c10.62,25.81-1.66,55.33-27.46,65.96-25.78,10.63-55.35-1.65-65.98-27.44-10.63-25.81,1.69-55.36,27.48-66,25.79-10.6,55.32,1.68,65.95,27.48Z"/>
  </g>
  <g>
    <polygon class="st1" points="1752.37 1427.45 624.81 1701.25 493.26 1159.45 1620.78 885.66 1752.37 1427.45"/>
    <path class="st2" d="M1340.35,1240.63c29.16,120.14-44.58,241.18-164.71,270.37-120.12,29.16-241.2-44.57-270.37-164.71-29.15-120.14,44.57-241.18,164.73-270.35,120.13-29.17,241.16,44.56,270.35,164.69Z"/>
    <path class="st2" d="M493.26,1159.45l34.95,144c79.55-19.32,128.37-99.44,109.04-178.97l-144,34.97Z"/>
    <g>
      <path class="st0" d="M1154.39,1224.05c-5.44-16.16-22.7-20.71-51.85-13.62-29.21,7.08-41.94,18.44-38.16,34.02,2.32,9.53,8.69,15.33,19.16,17.32,10.46,2.01,30.58,2.32,60.36.83,29.79-1.45,52.88,2.57,69.33,12.15,16.45,9.54,27.18,24.56,32.15,45.04,5.79,23.9-.42,44.98-18.64,63.16-18.17,18.22-41.07,30.64-68.66,37.36-66.65,16.18-110.82-.1-132.53-48.91l54.08-17.85c10.58,25.79,33.56,34.38,68.88,25.82,33.12-8.05,46.93-23.28,41.48-45.73-2.41-9.93-8.19-16.38-17.45-19.27-9.19-2.92-29.36-3.68-60.42-2.24-31.06,1.38-54.65-2.24-70.72-10.94-16.04-8.74-26.23-21.94-30.54-39.66-4.61-19.04-.05-37.22,13.68-54.51,13.72-17.29,36.76-29.86,69.08-37.7,64.02-15.54,102.74-2.49,116.12,39.17l-55.33,15.55Z"/>
      <polygon class="st0" points="1123.48 1167.61 1070.95 1180.34 1059.32 1132.54 1111.88 1119.78 1123.48 1167.61"/>
      <polygon class="st0" points="1192.77 1452.83 1140.2 1465.57 1128.57 1417.78 1181.13 1405.02 1192.77 1452.83"/>
    </g>
    <path class="st2" d="M622.74,1692.66l143.99-34.95c-19.32-79.55-99.43-128.37-178.96-109.04l34.98,143.99Z"/>
    <path class="st2" d="M1750.25,1418.88l-34.95-144.02c-79.53,19.32-128.34,99.45-109.05,178.99l144-34.97Z"/>
    <path class="st2" d="M1620.78,885.66l-144.01,34.98c19.33,79.52,99.45,128.33,178.98,109.02l-34.97-144Z"/>
    <path class="st2" d="M810.69,1369.26c6.57,27.13-10.07,54.44-37.2,61.02-27.07,6.58-54.42-10.05-60.99-37.17-6.59-27.11,10.06-54.43,37.17-61.03,27.12-6.58,54.42,10.08,61.01,37.19Z"/>
    <path class="st2" d="M1533.14,1193.83c6.57,27.12-10.07,54.43-37.2,61.01-27.1,6.6-54.43-10.03-61.03-37.16-6.58-27.1,10.09-54.43,37.19-61.04,27.12-6.56,54.45,10.08,61.05,37.2Z"/>
  </g>
</svg>