<?xml version="1.0" encoding="UTF-8"?>
<svg id="Objects" xmlns="http://www.w3.org/2000/svg" version="1.1" viewBox="0 0 2200 2200">
  <!-- Generator: Adobe Illustrator 29.2.1, SVG Export Plug-In . SVG Version: 2.1.0 Build 116)  -->
  <defs>
    <style>
      .st0 {
        fill: #294456;
      }

      .st1 {
        fill: #729aa3;
      }

      .st2 {
        fill: #34526b;
      }

      .st3 {
        fill: #50adc9;
      }
    </style>
  </defs>
  <path class="st2" d="M1927.93,1249.58v349.67c0,87.33-70.8,158.13-158.13,158.13H385.21c-87.33,0-158.13-70.8-158.13-158.13v-998.5c0-87.33,70.8-158.13,158.13-158.13h1384.59c87.33,0,158.13,70.8,158.13,158.13v349.67"/>
  <path class="st0" d="M1763.73,1679.7h-43.06c-10.82,0-19.58-8.77-19.58-19.58s8.77-19.58,19.58-19.58h43.05c3.89,0,7.58-.19,10.96-.58,10.75-1.2,20.44,6.52,21.65,17.27,1.21,10.75-6.52,20.44-17.27,21.65-4.83.54-9.99.82-15.34.82ZM1630.7,1679.7h-56.23c-10.82,0-19.58-8.77-19.58-19.58s8.77-19.58,19.58-19.58h56.23c10.82,0,19.58,8.77,19.58,19.58s-8.77,19.58-19.58,19.58ZM1484.49,1679.7h-56.23c-10.82,0-19.58-8.77-19.58-19.58s8.77-19.58,19.58-19.58h56.23c10.82,0,19.58,8.77,19.58,19.58s-8.77,19.58-19.58,19.58ZM1338.28,1679.7h-56.23c-10.82,0-19.58-8.77-19.58-19.58s8.77-19.58,19.58-19.58h56.23c10.82,0,19.58,8.77,19.58,19.58s-8.77,19.58-19.58,19.58ZM1192.07,1679.7h-56.23c-10.82,0-19.58-8.77-19.58-19.58s8.77-19.58,19.58-19.58h56.23c10.82,0,19.58,8.77,19.58,19.58s-8.77,19.58-19.58,19.58ZM1045.86,1679.7h-56.23c-10.82,0-19.58-8.77-19.58-19.58s8.77-19.58,19.58-19.58h56.23c10.82,0,19.58,8.77,19.58,19.58s-8.77,19.58-19.58,19.58ZM899.66,1679.7h-56.23c-10.82,0-19.58-8.77-19.58-19.58s8.77-19.58,19.58-19.58h56.23c10.82,0,19.58,8.77,19.58,19.58s-8.77,19.58-19.58,19.58ZM753.45,1679.7h-56.23c-10.82,0-19.58-8.77-19.58-19.58s8.77-19.58,19.58-19.58h56.23c10.82,0,19.58,8.77,19.58,19.58s-8.77,19.58-19.58,19.58ZM607.24,1679.7h-56.23c-10.82,0-19.58-8.77-19.58-19.58s8.77-19.58,19.58-19.58h56.23c10.82,0,19.58,8.77,19.58,19.58s-8.77,19.58-19.58,19.58ZM461.03,1679.7h-56.23c-10.82,0-19.58-8.77-19.58-19.58s8.77-19.58,19.58-19.58h56.23c10.82,0,19.58,8.77,19.58,19.58s-8.77,19.58-19.58,19.58ZM1829.41,1617.82c-.23,0-.45,0-.68-.01-10.81-.37-19.27-9.43-18.91-20.24.05-1.3.07-2.64.07-3.98v-51.59c0-10.82,8.77-19.58,19.58-19.58s19.58,8.77,19.58,19.58v51.59c0,1.78-.03,3.57-.09,5.31-.36,10.58-9.05,18.92-19.56,18.92ZM1829.47,1471.61c-10.82,0-19.58-8.77-19.58-19.58v-56.23c0-10.82,8.77-19.58,19.58-19.58s19.58,8.77,19.58,19.58v56.23c0,10.82-8.77,19.58-19.58,19.58ZM1829.47,1325.4c-10.82,0-19.58-8.77-19.58-19.58v-56.23c0-10.82,8.77-19.58,19.58-19.58s19.58,8.77,19.58,19.58v56.23c0,10.82-8.77,19.58-19.58,19.58Z"/>
  <path class="st0" d="M1779.08,521.12c10.75,1.21,18.48,10.91,17.27,21.65-1.21,10.75-10.9,18.47-21.65,17.27-3.38-.38-7.07-.57-10.96-.58h-43.05c-10.82,0-19.58-8.77-19.58-19.58s8.77-19.58,19.58-19.58h43.06c5.35,0,10.51.28,15.34.82ZM1650.29,539.88c0,10.82-8.77,19.58-19.58,19.58h-56.23c-10.82,0-19.58-8.77-19.58-19.58s8.77-19.58,19.58-19.58h56.23c10.82,0,19.58,8.77,19.58,19.58ZM1504.08,539.88c0,10.82-8.77,19.58-19.58,19.58h-56.23c-10.82,0-19.58-8.77-19.58-19.58s8.77-19.58,19.58-19.58h56.23c10.82,0,19.58,8.77,19.58,19.58ZM1357.87,539.88c0,10.82-8.77,19.58-19.58,19.58h-56.23c-10.82,0-19.58-8.77-19.58-19.58s8.77-19.58,19.58-19.58h56.23c10.82,0,19.58,8.77,19.58,19.58ZM1211.66,539.88c0,10.82-8.77,19.58-19.58,19.58h-56.23c-10.82,0-19.58-8.77-19.58-19.58s8.77-19.58,19.58-19.58h56.23c10.82,0,19.58,8.77,19.58,19.58ZM1065.45,539.88c0,10.82-8.77,19.58-19.58,19.58h-56.23c-10.82,0-19.58-8.77-19.58-19.58s8.77-19.58,19.58-19.58h56.23c10.82,0,19.58,8.77,19.58,19.58ZM919.24,539.88c0,10.82-8.77,19.58-19.58,19.58h-56.23c-10.82,0-19.58-8.77-19.58-19.58s8.77-19.58,19.58-19.58h56.23c10.82,0,19.58,8.77,19.58,19.58ZM773.03,539.88c0,10.82-8.77,19.58-19.58,19.58h-56.23c-10.82,0-19.58-8.77-19.58-19.58s8.77-19.58,19.58-19.58h56.23c10.82,0,19.58,8.77,19.58,19.58ZM626.82,539.88c0,10.82-8.77,19.58-19.58,19.58h-56.23c-10.82,0-19.58-8.77-19.58-19.58s8.77-19.58,19.58-19.58h56.23c10.82,0,19.58,8.77,19.58,19.58ZM480.61,539.88c0,10.82-8.77,19.58-19.58,19.58h-56.23c-10.82,0-19.58-8.77-19.58-19.58s8.77-19.58,19.58-19.58h56.23c10.82,0,19.58,8.77,19.58,19.58ZM1848.96,601.1c.06,1.74.09,3.53.09,5.31v51.59c0,10.82-8.77,19.58-19.58,19.58s-19.58-8.77-19.58-19.58v-51.59c0-1.34-.02-2.68-.07-3.98-.37-10.81,8.1-19.87,18.91-20.24.23,0,.45-.01.68-.01,10.51,0,19.2,8.34,19.56,18.92ZM1849.05,747.97v56.23c0,10.82-8.77,19.58-19.58,19.58s-19.58-8.77-19.58-19.58v-56.23c0-10.82,8.77-19.58,19.58-19.58s19.58,8.77,19.58,19.58ZM1849.05,894.18v56.23c0,10.82-8.77,19.58-19.58,19.58s-19.58-8.77-19.58-19.58v-56.23c0-10.82,8.77-19.58,19.58-19.58s19.58,8.77,19.58,19.58Z"/>
  <path class="st0" d="M1704.12,950.42h226.77c23.2,0,42.03,18.83,42.03,42.03v215.1c0,23.2-18.83,42.03-42.03,42.03h-226.77c-82.56,0-149.58-67.03-149.58-149.58h0c0-82.56,67.03-149.58,149.58-149.58Z"/>
  <circle class="st1" cx="1703.17" cy="1100" r="57.92"/>
  <path class="st3" d="M227.08,1122.49h748.39c10.58,56.08,59.92,98.64,119.03,98.64,66.79,0,121.13-54.34,121.13-121.13s-54.34-121.13-121.13-121.13c-59.11,0-108.45,42.56-119.03,98.64H227.08v44.99ZM1094.5,1176.14c-41.99,0-76.15-34.16-76.15-76.14s34.16-76.14,76.15-76.14,76.14,34.16,76.14,76.14-34.16,76.14-76.14,76.14Z"/>
  <path class="st3" d="M227.08,961.62h412.85c5.97,0,11.69-2.37,15.9-6.59l65.64-65.63c19.44,13.3,42.94,21.1,68.23,21.1,66.79,0,121.13-54.34,121.13-121.13s-54.34-121.13-121.13-121.13-121.13,54.34-121.13,121.13c0,25.28,7.79,48.78,21.09,68.22l-59.05,59.04H227.08v44.99ZM789.7,713.22c41.99,0,76.14,34.16,76.14,76.14s-34.16,76.14-76.14,76.14-76.14-34.16-76.14-76.14,34.16-76.14,76.14-76.14Z"/>
  <path class="st3" d="M227.08,1283.37h403.54l59.05,59.04c-13.3,19.44-21.09,42.94-21.09,68.22,0,66.79,54.34,121.13,121.13,121.13s121.13-54.34,121.13-121.13-54.34-121.13-121.13-121.13c-25.29,0-48.78,7.79-68.23,21.1l-65.64-65.63c-4.22-4.22-9.94-6.59-15.9-6.59H227.08v44.99ZM789.7,1486.78c-41.99,0-76.14-34.16-76.14-76.14s34.16-76.14,76.14-76.14,76.14,34.16,76.14,76.14-34.16,76.14-76.14,76.14Z"/>
</svg>