<?xml version="1.0" encoding="UTF-8"?>
<svg id="Layer_1" xmlns="http://www.w3.org/2000/svg" version="1.1" viewBox="0 0 126.37 45">
  <!-- Generator: Adobe Illustrator 29.2.1, SVG Export Plug-In . SVG Version: 2.1.0 Build 116)  -->
  <defs>
    <style>
      .st0 {
        fill: #2d3f63;
      }
    </style>
  </defs>
  <g>
    <rect class="st0" x="28.03" y="3.55" width="16.99" height="9.83" rx="4.92" ry="4.92" transform="translate(4.71 28.31) rotate(-45)"/>
    <path class="st0" d="M4.21,44.29c.95.95,2.5.95,3.45,0l14.84-14.84h0l5.24-5.24c.95-.95.95-2.5,0-3.45l-5.23-5.23-.02.02L7.67.71c-.95-.95-2.5-.95-3.45,0L.71,4.21c-.95.95-.95,2.5,0,3.45l13.11,13.11c.95.95.95,2.5,0,3.45L.71,37.34c-.95.95-.95,2.5,0,3.45l3.5,3.5h0Z"/>
    <rect class="st0" x="31.61" y="28.02" width="9.83" height="17.02" rx="4.92" ry="4.92" transform="translate(-15.13 36.52) rotate(-45)"/>
  </g>
  <g>
    <path class="st0" d="M45,12.54h8.1c1.5,0,2.79.26,3.89.77,1.09.51,1.99,1.21,2.68,2.09.69.88,1.21,1.92,1.55,3.11.34,1.19.51,2.45.51,3.81s-.17,2.62-.51,3.81c-.34,1.19-.85,2.22-1.55,3.11-.69.89-1.59,1.58-2.68,2.09-1.09.51-2.39.77-3.89.77h-8.1V12.54h0ZM48.43,29.29h3.37c1.33,0,2.42-.18,3.27-.53s1.52-.85,2-1.48c.48-.63.81-1.37.99-2.22s.26-1.77.26-2.75-.09-1.9-.26-2.75c-.17-.85-.5-1.59-.99-2.22s-1.15-1.12-2-1.48c-.85-.36-1.94-.53-3.27-.53h-3.37v13.96h0Z"/>
    <path class="st0" d="M66.77,25.81c0,.55.08,1.08.23,1.59.15.51.39.96.7,1.34.31.38.7.69,1.18.92.47.23,1.04.34,1.7.34.91,0,1.65-.2,2.2-.59.56-.39.97-.98,1.25-1.77h2.96c-.16.77-.45,1.45-.85,2.05-.4.6-.88,1.11-1.45,1.52-.57.41-1.2.72-1.9.93-.7.21-1.44.32-2.2.32-1.11,0-2.1-.18-2.96-.55-.86-.36-1.58-.88-2.18-1.53-.59-.66-1.04-1.44-1.34-2.36-.3-.91-.45-1.92-.45-3.01,0-1,.16-1.96.48-2.86s.77-1.7,1.37-2.38c.59-.68,1.31-1.23,2.15-1.63s1.79-.6,2.85-.6c1.11,0,2.11.23,3,.7.88.47,1.62,1.08,2.2,1.85.58.77,1.01,1.65,1.27,2.64.26.99.33,2.02.21,3.08h-10.4,0ZM74.05,23.76c-.04-.49-.14-.97-.32-1.42-.17-.46-.41-.85-.71-1.19-.3-.34-.67-.61-1.09-.82-.43-.21-.91-.32-1.44-.32s-1.05.1-1.49.29-.83.46-1.15.79c-.32.34-.58.73-.77,1.19-.19.46-.3.95-.32,1.48h7.28,0Z"/>
    <path class="st0" d="M83.36,24.64l-4.9-6.71h3.78l2.96,4.35,3.09-4.35h3.61l-4.82,6.54,5.42,7.61h-3.75l-3.59-5.23-3.48,5.23h-3.67l5.34-7.45h0Z"/>
    <path class="st0" d="M92.83,17.93h2.36v-4.24h3.12v4.24h2.82v2.33h-2.82v7.56c0,.33.01.61.04.85s.09.44.19.6c.1.16.25.29.45.37.2.08.47.12.82.12.22,0,.44,0,.66-.01.22,0,.44-.04.66-.1v2.41c-.35.04-.69.07-1.01.11-.33.04-.67.05-1.01.05-.82,0-1.48-.08-1.99-.23s-.89-.38-1.18-.68c-.28-.3-.47-.68-.58-1.14-.1-.46-.16-.98-.18-1.56v-8.35h-2.36v-2.33h0Z"/>
    <path class="st0" d="M103.38,17.93h2.93v2.74h.05c.09-.38.27-.76.53-1.12.26-.36.58-.7.96-1s.79-.54,1.25-.73c.46-.18.92-.27,1.4-.27.36,0,.62.01.75.03.14.02.28.04.43.05v3.01c-.22-.04-.44-.07-.67-.1s-.45-.04-.67-.04c-.53,0-1.03.11-1.49.32-.47.21-.87.52-1.22.93-.35.41-.62.92-.82,1.52s-.3,1.3-.3,2.08v6.74h-3.12v-14.16h0Z"/>
    <path class="st0" d="M124.87,28.94c0,.38.05.66.15.82.1.16.3.25.59.25h.33c.13,0,.27-.02.44-.05v2.16c-.11.04-.25.08-.42.12-.17.04-.35.09-.53.12s-.37.06-.55.08c-.18.02-.34.03-.47.03-.64,0-1.17-.13-1.59-.38-.42-.26-.69-.7-.82-1.34-.62.6-1.38,1.04-2.29,1.31s-1.78.41-2.62.41c-.64,0-1.25-.09-1.83-.26s-1.1-.43-1.55-.77c-.45-.34-.8-.77-1.07-1.29-.26-.52-.4-1.13-.4-1.82,0-.88.16-1.59.48-2.14.32-.55.74-.98,1.26-1.29.52-.31,1.1-.53,1.75-.67s1.3-.24,1.96-.32c.57-.11,1.1-.19,1.61-.23.51-.04.96-.12,1.35-.23s.7-.28.93-.51.34-.57.34-1.03c0-.4-.1-.73-.29-.99s-.43-.45-.71-.59c-.28-.14-.6-.23-.94-.27-.35-.04-.68-.07-.99-.07-.88,0-1.6.18-2.16.55-.57.37-.88.93-.96,1.7h-3.12c.05-.91.27-1.67.66-2.27.38-.6.87-1.09,1.46-1.45.59-.36,1.26-.62,2.01-.77s1.52-.22,2.3-.22c.69,0,1.38.07,2.05.22.68.15,1.28.38,1.82.71.54.33.97.75,1.3,1.27s.49,1.16.49,1.9v7.28h0ZM121.75,24.99c-.47.31-1.06.5-1.75.56s-1.39.16-2.08.29c-.33.05-.65.13-.96.23-.31.1-.58.24-.82.41s-.43.4-.56.68c-.14.28-.21.63-.21,1.03,0,.35.1.64.3.88s.44.43.73.56c.28.14.59.23.93.29.34.05.64.08.92.08.35,0,.72-.04,1.12-.14.4-.09.78-.25,1.14-.47.36-.22.65-.5.89-.84.24-.34.36-.75.36-1.25v-2.33h0Z"/>
  </g>
</svg>