<?xml version="1.0" encoding="UTF-8"?>
<svg version="1.1" xmlns="http://www.w3.org/2000/svg" width="1500" height="1500">
<path d="M0 0 C495 0 990 0 1500 0 C1500 495 1500 990 1500 1500 C1005 1500 510 1500 0 1500 C0 1005 0 510 0 0 Z " fill="#000000" transform="translate(0,0)"/>
<path d="M0 0 C11.16560901 8.18420332 20.75313305 19.06100123 30.50031638 28.83208919 C32.13817703 30.4702303 33.77626009 32.10814906 35.41454458 33.7458663 C39.88925538 38.22028313 44.36085722 42.69779547 48.8319428 47.17583442 C53.16704878 51.51718064 57.50503819 55.8556448 61.84273088 60.19440619 C70.71014358 69.06414645 79.57530083 77.93613765 88.43922782 86.80936122 C100.5441525 98.9269205 112.65238472 111.04117073 124.76148769 123.15455446 C130.41011584 128.8051883 136.05858304 134.45598304 141.70700812 140.10681987 C142.27233143 140.67238418 142.83765473 141.2379485 143.42010904 141.82065113 C156.85877146 155.26511769 170.2958568 168.71116014 183.73267722 182.1574676 C184.61395272 183.03936357 184.61395272 183.03936357 185.51303176 183.93907562 C194.45121634 192.88355721 203.38931863 201.82812103 212.32740378 210.77270198 C221.86609303 220.31832259 231.4048142 229.8639113 240.94361472 239.40942073 C241.53141804 239.99763864 242.11922136 240.58585655 242.7248369 241.19189924 C256.14744375 254.62395624 269.57050168 268.05556202 282.99497199 281.48575664 C283.55927944 282.05030508 284.12358689 282.61485352 284.70499456 283.19650949 C290.33879927 288.83269961 295.97268271 294.46881101 301.60668373 300.1048049 C313.70277173 312.20520645 325.79748003 324.30698244 337.88939008 336.4115591 C346.70011516 345.23147188 355.51255669 354.04966644 364.32678846 362.86607483 C369.10070794 367.64128361 373.87373252 372.41737891 378.64459586 377.19564128 C383.01185608 381.56964909 387.38141549 385.94134626 391.75281116 390.31122097 C393.33354518 391.89222643 394.91342871 393.47408279 396.49237302 395.05687562 C398.63995589 397.20944974 400.79062018 399.35889876 402.94206214 401.50761485 C403.55293666 402.12140223 404.16381117 402.7351896 404.79319704 403.3675766 C408.49229097 407.0540273 412.31512481 410.54417315 416.27563624 413.94856427 C419.02191845 416.34788953 421.60268946 418.89987317 424.17992759 421.47805476 C425.01982556 422.3124377 425.01982556 422.3124377 425.87669116 423.16367686 C427.72644617 425.00254052 429.57272343 426.84485363 431.41895652 428.68725276 C432.75508981 430.01711054 434.09140879 431.34678178 435.42789817 432.67628169 C439.79248777 437.01996343 444.15186334 441.36885912 448.51099753 445.71801448 C450.01893608 447.22190095 451.52690707 448.72575488 453.03490996 450.22957683 C460.12013568 457.29578256 467.20296857 464.36437599 474.2828657 471.4359206 C482.42732419 479.5706089 490.57999337 487.69695048 498.73974437 495.81629837 C505.06639039 502.1127006 511.38526105 508.41683937 517.69845515 514.72672904 C521.46026555 518.48619913 525.22524686 522.24235243 528.99851394 525.99032664 C532.55081533 529.51919623 536.09329147 533.05765066 539.62878394 536.60335803 C540.91961786 537.8946837 542.21381004 539.18266359 543.51178908 540.46680713 C560.10923243 556.89733914 571.28173786 572.95517377 571.45240378 597.08520198 C571.39703676 604.90786994 570.776467 612.11191204 568.07740378 619.52270198 C567.79896628 620.29227229 567.52052878 621.0618426 567.23365378 621.85473323 C562.83696226 632.67590074 555.85686192 641.33588262 547.63159347 649.47467017 C546.68512643 650.42562427 545.73953521 651.37745068 544.79473156 652.33005741 C542.21059766 654.93049581 539.61429281 657.5184669 537.01571579 660.10446155 C534.18523474 662.9256582 531.36641072 665.75846394 528.54604757 668.58976895 C523.60616206 673.5456115 518.65890798 678.49400041 513.70669532 683.4375236 C506.34245163 690.78888027 498.98968429 698.15163653 491.63908524 705.51663323 C478.50916915 718.67147335 465.3677599 731.81478428 452.2213277 744.95311666 C440.7157006 756.45166959 429.21359022 767.95372526 417.7149961 779.45931125 C416.17227156 781.00294712 414.62954673 782.54658271 413.08682162 784.09021801 C410.76204909 786.41637368 408.43728053 788.74253333 406.11252239 791.06870338 C384.50057774 812.69362782 362.8847038 834.31461827 341.26045394 855.92723823 C340.44540503 856.74184917 339.63035612 857.55646011 338.79060875 858.39575623 C332.17191184 865.01084636 325.55310095 871.62582246 318.93428278 878.24079127 C293.11624203 904.04398454 267.31004124 929.85896486 241.51343894 955.68359065 C212.52598803 984.70247116 183.53032187 1013.71310511 154.52205312 1042.71117646 C151.42891631 1045.8032765 148.33580426 1048.89540132 145.24270606 1051.98754001 C144.481109 1052.74888818 143.71951193 1053.51023636 142.93483617 1054.2946557 C131.43994023 1065.78611202 119.95142993 1077.28392631 108.4660871 1088.78492999 C95.40402477 1101.8647622 82.33317573 1114.93574039 69.25060456 1127.99506088 C61.93126296 1135.30190441 54.61886808 1142.61553995 47.3163492 1149.9391971 C42.43492934 1154.83335482 37.54444418 1159.71832827 32.64655637 1164.59600513 C29.85810339 1167.37345622 27.07367011 1170.15462323 24.30019705 1172.94703975 C21.77132348 1175.49301952 19.23099444 1178.02698035 16.68148275 1180.55228819 C15.34741566 1181.87945993 14.02544543 1183.21875878 12.70418042 1184.55867615 C-0.97380301 1198.03180136 -18.62036019 1206.42799504 -37.98509622 1206.89770198 C-47.96163324 1206.61171525 -56.21062645 1204.11127141 -65.11009622 1199.77270198 C-65.75124368 1199.46203792 -66.39239114 1199.15137385 -67.05296731 1198.83129573 C-76.72831514 1193.87135229 -84.35640068 1186.38959051 -91.98118997 1178.77050471 C-92.95274254 1177.80659371 -93.92468826 1176.84307882 -94.89699197 1175.87992549 C-97.51345958 1173.28521258 -100.12350218 1170.68413325 -102.7316668 1168.0810771 C-104.36819595 1166.44821414 -106.00601035 1164.81665125 -107.64424539 1163.18549991 C-113.37879132 1157.47538211 -119.10765269 1151.75962464 -124.8317759 1146.0390594 C-130.13621988 1140.73824578 -135.45364202 1135.45070056 -140.77717519 1130.1690647 C-145.37327054 1125.60785599 -149.95950507 1121.03688183 -154.53853726 1116.45854408 C-157.26198647 1113.73588142 -159.98911856 1111.01719814 -162.72652078 1108.30855823 C-197.74604814 1073.63430033 -197.74604814 1073.63430033 -198.30321145 1048.53759456 C-198.25638627 1031.21431374 -193.08415129 1015.17702228 -181.60453916 1002.0344007 C-180.82312273 1001.1328338 -180.82312273 1001.1328338 -180.02592011 1000.21305342 C-173.66669035 992.96836196 -166.84688001 986.1890864 -160.01150918 979.39802241 C-158.53727654 977.92578668 -157.06349441 976.45309972 -155.59011894 974.98000616 C-151.57625951 970.96941016 -147.5562283 966.96505246 -143.53511775 962.96172845 C-139.18582301 958.62939846 -134.84245196 954.29113685 -130.49841714 949.95353389 C-122.98130579 942.44898012 -115.46076275 934.94788184 -107.93804383 927.44895053 C-96.54900474 916.09571309 -85.16851663 904.73392756 -73.78972892 893.37041691 C-69.21521521 888.80211952 -64.64042748 884.23409653 -60.06563687 879.66607642 C-59.55752127 879.15871036 -59.04940567 878.6513443 -58.52589262 878.12860351 C-46.45342185 866.07404582 -34.37824651 854.02219873 -22.30223489 841.97118831 C-21.51045381 841.18104045 -21.51045381 841.18104045 -20.70267716 840.37493 C-8.380661 828.07837604 3.94264074 815.78311222 16.26813865 803.49004817 C17.06407984 802.69619854 17.06407984 802.69619854 17.87610065 801.88631154 C20.55212542 799.21732265 23.22815904 796.54834263 25.90419301 793.87936296 C26.69759991 793.0880464 26.69759991 793.0880464 27.50703524 792.28074365 C28.5746487 791.21594368 29.64226369 790.15114523 30.70988019 789.0863483 C48.35733762 771.48541343 65.99797622 753.87766731 83.6311547 736.262427 C86.12193062 733.77420401 88.61279877 731.28607337 91.10373092 728.79800677 C91.83898833 728.0635934 91.83898833 728.0635934 92.58909942 727.3143434 C100.46612812 719.44681445 108.35053087 711.58671566 116.23792836 703.72958312 C124.16361394 695.83407873 132.08202483 687.93133662 139.99349818 680.02158669 C144.27684925 675.73964269 148.56341315 671.46104863 152.85881782 667.19119334 C156.79333795 663.27995361 160.71845885 659.35952768 164.63642206 655.43170472 C166.05259187 654.0152332 167.47214036 652.60212958 168.8954492 651.19283173 C178.26920436 641.9065804 186.73916704 632.88472462 190.95240378 620.08520198 C191.5363491 618.35463557 191.5363491 618.35463557 192.13209128 616.58910823 C197.21809989 600.09110512 194.88696355 581.40030908 187.31959128 566.17504573 C180.99485423 555.25980427 171.41698479 546.59444802 162.54690146 537.78533626 C161.06517119 536.30631748 159.58389131 534.82684736 158.10302085 533.3469677 C154.04977081 529.29892957 149.99033812 525.25714212 145.92987692 521.21633911 C141.54503815 516.85046987 137.1660869 512.47870283 132.78651023 508.1075561 C125.6929529 501.02894939 118.59672021 493.95303813 111.49808475 486.8795249 C99.51104796 474.93489358 87.53284934 462.98143113 75.55738807 451.0251956 C70.94341215 446.41869707 66.32916558 441.81246962 61.71493793 437.20622325 C61.2023602 436.69452883 60.68978248 436.1828344 60.1616721 435.65563409 C47.97206342 423.48711233 35.77998664 411.32106478 23.58692527 399.15600276 C23.05371666 398.62401372 22.52050806 398.09202469 21.97114162 397.54391477 C9.53232573 385.13361144 -2.90819807 372.72502396 -15.35216165 360.31988215 C-15.88733984 359.78637242 -16.42251803 359.25286269 -16.97391374 358.70318599 C-19.67262737 356.01289886 -22.37136105 353.32263184 -25.07010204 350.63237217 C-25.87018139 349.8348071 -25.87018139 349.8348071 -26.68642395 349.0211296 C-27.76301092 347.94792745 -28.83959958 346.87472699 -29.91618992 345.80152823 C-47.72107416 328.05263283 -65.51747079 310.2952638 -83.30435742 292.52833171 C-85.81842874 290.01710142 -88.33261104 287.50598228 -90.84686875 284.99493861 C-91.58902707 284.25372547 -91.58902707 284.25372547 -92.34617849 283.49753832 C-100.29233425 275.56205568 -108.24757556 267.63574219 -116.20648394 259.71305202 C-124.21072841 251.74492618 -132.20576538 243.7676743 -140.19214445 235.78163424 C-144.51496436 231.45957981 -148.84174308 227.14169537 -153.17964005 222.83476901 C-157.1561114 218.88652856 -161.12071022 214.9267478 -165.07646418 210.95775393 C-166.50403 209.52946698 -167.93579053 208.10535673 -169.37229567 206.68606088 C-185.64106955 190.60183104 -197.60740332 173.29080115 -198.23509622 149.64770198 C-198.02214474 139.33636723 -195.71844154 130.560882 -191.23509622 121.33520198 C-190.78166848 120.39184993 -190.78166848 120.39184993 -190.31908059 119.42944026 C-185.16730054 109.41352985 -177.07594025 101.37894372 -169.17699075 93.50243831 C-168.22612903 92.54721587 -167.27568162 91.59158086 -166.32561135 90.63557124 C-163.77235341 88.06906204 -161.21287374 85.508849 -158.65170932 82.95023251 C-156.50295037 80.80255221 -154.35719534 78.65188253 -152.211362 76.50127977 C-147.14493762 71.42380943 -142.07326561 66.35162376 -136.99827981 61.28271174 C-131.7851755 56.07565111 -126.58132863 50.85946794 -121.38189638 45.63875824 C-116.89448807 41.13367161 -112.40122669 36.63448075 -107.90334809 32.1398477 C-105.22705153 29.46535332 -102.55296354 26.78874676 -99.88457513 24.1063602 C-97.37464412 21.58375243 -94.85741199 19.06865483 -92.33466744 16.5588634 C-90.98383528 15.2114814 -89.64031854 13.85677728 -88.29713845 12.50176692 C-80.84788293 5.11571066 -72.90245605 -0.99671673 -63.29759622 -5.28979802 C-62.69431497 -5.57532537 -62.09103372 -5.86085271 -61.46947122 -6.1550324 C-41.78588331 -15.18016685 -17.96131154 -11.28077958 0 0 Z " fill="#FEFEFE" transform="translate(338.9225962162018,152.47729802131653)"/>
<path d="M0 0 C11.72950331 9.71383905 22.20443076 21.03407791 32.97403169 31.78467083 C35.8066571 34.61127004 38.64205926 37.43508197 41.477005 40.25935364 C48.29798384 47.05598622 55.11417555 53.85740934 61.92946136 60.65974993 C63.85717113 62.58373789 65.78500597 64.50760044 67.71288395 66.43141985 C79.71436421 78.40767859 91.71424762 90.38553488 103.70936203 102.36816978 C106.47760836 105.13348709 109.24587107 107.898788 112.01416016 110.6640625 C112.7020889 111.35124519 113.39001764 112.03842788 114.0987927 112.74643429 C125.25531273 123.89028684 136.42208693 135.02380577 147.5930638 146.15316431 C159.08829644 157.60592354 170.57403185 169.0681393 182.05065751 180.5395447 C188.48424877 186.96973053 194.92190241 193.39572918 201.37029266 199.81107712 C206.8575207 205.2702307 212.33608238 210.73790011 217.8037087 216.21668862 C220.58933382 219.0074791 223.37874804 221.79416553 226.17938423 224.56989861 C228.7500313 227.11787836 231.30855132 229.67744714 233.85845879 232.24617703 C235.20563627 233.59743035 236.56499834 234.93650327 237.92495894 236.2748903 C245.88847059 244.34105249 252.37607244 253.65095378 255.9375 264.5 C256.31777344 265.6240625 256.69804688 266.748125 257.08984375 267.90625 C262.07153842 284.83973574 258.72137894 302.5805124 250.85546875 318.05859375 C245.58377857 326.41560998 238.92449968 333.38079705 231.97241211 340.34985352 C230.97895352 341.35259402 229.98588202 342.35571816 228.99316406 343.35919189 C226.31796934 346.06038733 223.63634281 348.75510133 220.95258784 351.44778943 C219.26958782 353.13668937 217.58775249 354.82674099 215.90625191 356.51713371 C210.62592209 361.82474419 205.34165152 367.12838351 200.05154222 372.42624718 C193.97968707 378.50705627 187.92112579 384.60070852 181.87384027 390.70595032 C177.1742447 395.44899035 172.46297681 400.18023219 167.74294096 404.90293068 C164.93512028 407.71283181 162.13221084 410.52721857 159.34144402 413.35406685 C156.71249739 416.01634479 154.06913678 418.66347139 151.41480255 421.3004303 C150.00001739 422.71297864 148.59993431 424.1402067 147.20063782 425.56809998 C133.82784693 438.77081501 116.75449049 446.70152891 97.9375 447.4375 C75.36223382 447.09510466 58.32841278 434.65425355 42.96737671 419.22807312 C41.98743837 418.2511615 41.00706795 417.27468315 40.0263077 416.29859668 C37.35349866 413.63600909 34.68688828 410.96729048 32.02133417 408.29744256 C29.13738081 405.41101132 26.24767749 402.53034587 23.35874939 399.64889526 C17.70841633 394.01128117 12.06354203 388.36823215 6.42073773 382.72308334 C1.83260061 378.13316 -2.75730562 373.54501297 -7.34846115 368.9581089 C-8.0029813 368.30418395 -8.65750144 367.65025899 -9.33185553 366.97651813 C-10.66168944 365.64789602 -11.99152452 364.31927507 -13.32136075 362.99065528 C-25.77876434 350.54411613 -38.22965574 338.09107835 -50.67857604 325.63605515 C-62.05730181 314.25215947 -73.4442212 302.87650019 -84.8350317 291.5046977 C-96.54460623 279.81451278 -108.24859731 268.11876464 -119.94660318 256.41700298 C-126.50884955 249.85284649 -133.07326643 243.29089693 -139.64354324 236.73477745 C-145.23591788 231.15433175 -150.82298494 225.56863733 -156.40334965 219.97618087 C-159.24805081 217.12560212 -162.09506627 214.27744526 -164.9487133 211.43581963 C-167.56557623 208.82985243 -170.17530082 206.21694384 -172.77972464 203.5985466 C-174.15995096 202.21444329 -175.54749352 200.83764736 -176.9353615 199.46120661 C-184.19801366 192.1357947 -190.36434592 184.46178541 -194.3125 174.875 C-194.78300781 173.75867187 -195.25351562 172.64234375 -195.73828125 171.4921875 C-200.71532072 157.71672842 -202.01075461 139.1451424 -196.19140625 125.41796875 C-195.79824219 124.62003906 -195.40507813 123.82210938 -195 123 C-194.63777344 122.15050781 -194.27554688 121.30101562 -193.90234375 120.42578125 C-188.97684531 109.52289827 -180.43584324 101.1379157 -172.07080078 92.79614258 C-171.10023471 91.82121616 -170.13008307 90.84587703 -169.16030884 89.87016296 C-166.55333583 87.24993467 -163.94013605 84.63600602 -161.32525492 82.02367234 C-159.13176026 79.83125606 -156.94126876 77.63585086 -154.75069988 75.44051188 C-149.57880089 70.25756552 -144.40165208 65.07990527 -139.22119141 59.90551758 C-133.89902448 54.58939434 -128.58611347 49.26414732 -123.27761853 43.93437463 C-118.69679173 39.33587169 -114.11011377 34.74326175 -109.51881778 30.15521163 C-106.78663008 27.42482646 -104.05665214 24.69232593 -101.33237076 21.95405006 C-98.76990901 19.37891517 -96.20014928 16.81128304 -93.62487411 14.24896431 C-92.2454145 12.87295636 -90.87327324 11.4896235 -89.50146484 10.10598755 C-81.01670363 1.69177483 -72.18163253 -4.67622425 -61 -9 C-59.75863281 -9.48146484 -59.75863281 -9.48146484 -58.4921875 -9.97265625 C-39.17394881 -16.32345337 -16.273016 -11.53729751 0 0 Z " fill="#FEFEFE" transform="translate(1099,912)"/>
<path d="M0 0 C7.25998067 5.43242845 13.7659127 11.46432765 20.17211914 17.86572266 C21.14382091 18.82977946 22.1159144 19.79344157 23.08836365 20.75674438 C25.70062128 23.34728468 28.30648847 25.94415677 30.91046453 28.54301882 C32.54482321 30.17370776 34.18046621 31.80309761 35.81652641 33.43207932 C41.54458506 39.13572587 47.26697377 44.84499749 52.98461914 50.55908203 C58.2817005 55.85253105 63.59176825 61.13270342 68.90792757 66.40698588 C73.49979605 70.96396929 78.08180522 75.53071657 82.65661138 80.10482824 C85.37669224 82.8241227 88.10045251 85.53944086 90.83448982 88.24470901 C108.64748486 105.88201358 125.02017473 123.04734203 125.4375 149.625 C125.47217077 156.91783794 124.84665304 163.49398085 122.5625 170.4375 C122.35230225 171.09637207 122.14210449 171.75524414 121.92553711 172.43408203 C115.53773792 189.83217826 101.53846634 202.18323858 88.72713935 214.91182494 C85.78754961 217.83792697 82.86253039 220.77853722 79.93554688 223.71723938 C74.21477975 229.45630066 68.48076448 235.18194229 62.74184866 240.90284938 C58.0764924 245.55413429 53.41627609 250.21051285 48.75962639 254.87051392 C48.09487097 255.53574678 47.43011555 256.20097964 46.74521602 256.88637108 C45.39451571 258.23809779 44.04382988 259.58983898 42.69315838 260.94159448 C30.77401916 272.86928351 18.84234404 284.78435421 6.90405273 296.69287109 C-4.66621965 308.23428754 -16.22553073 319.78654666 -27.77368164 331.35009766 C-40.37069248 343.96388443 -52.9740592 356.57125912 -65.58820587 369.16791153 C-66.93407891 370.51194029 -68.27994718 371.85597383 -69.62581062 373.20001221 C-70.28789919 373.86118868 -70.94998775 374.52236516 -71.6321396 375.20357728 C-76.28680333 379.85264604 -80.93701239 384.50614193 -85.58556938 389.16131592 C-91.25167583 394.835168 -96.92500188 400.5016839 -102.60752469 406.15909618 C-105.5038994 409.04300721 -108.39705948 411.92995165 -111.28159523 414.82570839 C-113.92607333 417.48027886 -116.57972527 420.12531522 -119.24075676 422.76328874 C-120.64826677 424.16325453 -122.04607662 425.57295239 -123.44342512 426.98306084 C-131.81816641 435.24944515 -141.11240301 440.63877507 -152 445 C-152.804375 445.32226562 -153.60875 445.64453125 -154.4375 445.9765625 C-169.16341028 450.90053875 -184.92050446 448.67925719 -199 443 C-199.92039062 442.65066406 -200.84078125 442.30132813 -201.7890625 441.94140625 C-218.04971599 434.89512307 -231.12139928 417.11268276 -243.546875 404.76171875 C-244.08011037 404.2317807 -244.61334574 403.70184266 -245.16273975 403.15584588 C-250.20980016 398.13950421 -255.25482097 393.12111917 -260.29507065 388.09793377 C-266.68640792 381.72851309 -273.08763255 375.36939929 -279.50263286 369.02380913 C-284.04605219 364.52785718 -288.57771019 360.02025637 -293.1010735 355.5041278 C-295.78883358 352.82128202 -298.48123662 350.1435573 -301.18654633 347.47839928 C-318.71173204 330.20109931 -332.91065725 314.10705586 -333.25 288.0625 C-332.97973468 262.9523947 -321.36017607 247.0247491 -304.19084167 229.93014526 C-303.2342548 228.97052871 -302.27810044 228.01048084 -301.32233506 227.05004609 C-298.72511594 224.44264355 -296.12180979 221.84139765 -293.51734436 219.24123597 C-290.69771006 216.4240866 -287.88385299 213.60117601 -285.06919861 210.77905273 C-279.56620049 205.26335513 -274.05778846 199.75309587 -268.54726406 194.24491845 C-264.06562358 189.76506632 -259.5857639 185.28344076 -255.10714149 180.80057144 C-254.14834191 179.84087907 -254.14834191 179.84087907 -253.17017264 178.86179898 C-251.87135007 177.56176458 -250.57252866 176.26172903 -249.27370838 174.96169235 C-237.11466243 162.79178955 -224.94912738 150.62838973 -212.78159938 138.46696819 C-201.66754273 127.35808124 -190.56172319 116.24100099 -179.45975932 105.12002991 C-168.03845092 93.67931872 -156.61156521 82.24420555 -145.17867452 70.81506836 C-138.76874503 64.40704693 -132.36101077 57.99686756 -125.95912743 51.58080673 C-120.5101817 46.11991522 -115.05596172 40.66435825 -109.59500619 35.21547566 C-106.81303026 32.43936547 -104.033449 29.66097071 -101.26043701 26.87590408 C-98.71491168 24.31944249 -96.16238286 21.77018539 -93.60443083 19.22615959 C-92.25770086 17.88328554 -90.9182403 16.53313288 -89.57917947 15.18261135 C-81.48548397 7.15948847 -72.7269957 -0.25945279 -62.25 -4.9375 C-61.05890625 -5.48277344 -59.8678125 -6.02804688 -58.640625 -6.58984375 C-39.6026987 -13.96397615 -17.12626295 -10.88072614 0 0 Z " fill="#FEFEFE" transform="translate(1233,152)"/>
</svg>
