<?xml version="1.0" encoding="UTF-8"?>
<svg id="Layer_1" xmlns="http://www.w3.org/2000/svg" version="1.1" viewBox="0 0 311.28 311.28">
  <!-- Generator: Adobe Illustrator 29.1.0, SVG Export Plug-In . SVG Version: 2.1.0 Build 142)  -->
  <defs>
    <style>
      .st0 {
        fill: #fff;
      }
    </style>
  </defs>
  <rect class="st0" x="193.91" y="24.6" width="117.54" height="68" rx="16.89" ry="16.89" transform="translate(32.57 195.83) rotate(-45)"/>
  <path class="st0" d="M29.15,306.33c6.59,6.59,17.29,6.59,23.88,0l102.61-102.61h0l36.25-36.25c6.59-6.59,6.59-17.29,0-23.88l-36.14-36.14-.11.11L53.03,4.95c-6.59-6.59-17.29-6.59-23.88,0L4.95,29.15c-6.59,6.59-6.59,17.29,0,23.88l90.67,90.67c6.59,6.59,6.59,17.29,0,23.88L4.95,258.25c-6.59,6.59-6.59,17.29,0,23.88l24.2,24.2Z"/>
  <rect class="st0" x="218.62" y="193.78" width="68" height="117.69" rx="16.89" ry="16.89" transform="translate(-104.64 252.62) rotate(-45)"/>
</svg>