<?xml version="1.0" standalone="no"?>
<!DOCTYPE svg PUBLIC "-//W3C//DTD SVG 20010904//EN"
 "http://www.w3.org/TR/2001/REC-SVG-20010904/DTD/svg10.dtd">
<svg version="1.0" xmlns="http://www.w3.org/2000/svg"
 width="1500.000000pt" height="1500.000000pt" viewBox="0 0 1500.000000 1500.000000"
 preserveAspectRatio="xMidYMid meet">

<g transform="translate(0.000000,1500.000000) scale(0.100000,-0.100000)"
fill="#000000" stroke="none">
<path d="M0 7500 l0 -7500 7500 0 7500 0 0 7500 0 7500 -7500 0 -7500 0 0
-7500z m3228 6045 c45 -15 113 -48 151 -74 102 -68 5582 -5542 5630 -5624 129
-220 126 -495 -8 -700 -28 -43 -873 -894 -2818 -2838 -2451 -2449 -2785 -2779
-2840 -2808 -150 -77 -283 -102 -417 -76 -229 43 -239 50 -867 681 -518 521
-526 530 -567 614 -95 192 -104 357 -30 545 52 132 24 103 1933 2015 1802
1805 1843 1847 1878 1920 48 99 67 184 67 299 0 117 -20 202 -73 306 -39 79
-68 108 -1873 1915 -1347 1349 -1843 1852 -1873 1899 -64 100 -111 250 -111
356 0 106 47 256 111 356 46 72 992 1028 1094 1106 75 58 182 109 266 128 98
22 244 14 347 -20z m8949 1 c145 -47 183 -79 749 -648 557 -559 568 -572 620
-723 38 -111 40 -273 6 -385 -53 -169 16 -95 -1331 -1441 -1340 -1340 -1263
-1268 -1426 -1319 -159 -49 -323 -35 -485 42 l-85 40 -556 556 c-509 510 -559
563 -593 629 -124 243 -94 521 80 733 80 98 2382 2392 2437 2429 69 47 166 90
238 106 95 22 243 13 346 -19z m-1367 -7582 c48 -16 115 -49 155 -75 51 -35
402 -380 1281 -1261 1182 -1184 1212 -1215 1252 -1293 61 -120 76 -182 77
-310 0 -88 -5 -125 -23 -185 -50 -161 -49 -159 -634 -746 -357 -358 -557 -551
-593 -573 -79 -48 -166 -81 -263 -98 -78 -15 -93 -15 -180 1 -116 20 -210 59
-294 119 -35 25 -606 589 -1269 1254 l-1207 1208 -41 85 c-53 111 -74 194 -74
305 0 111 20 193 74 305 41 84 47 90 563 608 286 288 548 543 582 567 171 124
393 157 594 89z"/>
</g>
</svg>
