<?xml version="1.0" encoding="UTF-8"?>
<svg id="Layer_1" xmlns="http://www.w3.org/2000/svg" version="1.1" viewBox="0 0 874.09 311.28">
  <!-- Generator: Adobe Illustrator 29.1.0, SVG Export Plug-In . SVG Version: 2.1.0 Build 142)  -->
  <defs>
    <style>
      .st0 {
        fill: #fff;
      }
    </style>
  </defs>
  <g>
    <rect class="st0" x="193.91" y="24.6" width="117.54" height="68" rx="16.89" ry="16.89" transform="translate(32.57 195.83) rotate(-45)"/>
    <path class="st0" d="M29.15,306.33c6.59,6.59,17.29,6.59,23.88,0l102.61-102.61h0l36.25-36.25c6.59-6.59,6.59-17.29,0-23.88l-36.14-36.14-.11.11L53.03,4.95c-6.59-6.59-17.29-6.59-23.88,0L4.95,29.15c-6.59,6.59-6.59,17.29,0,23.88l90.67,90.67c6.59,6.59,6.59,17.29,0,23.88L4.95,258.25c-6.59,6.59-6.59,17.29,0,23.88l24.2,24.2Z"/>
    <rect class="st0" x="218.62" y="193.78" width="68" height="117.69" rx="16.89" ry="16.89" transform="translate(-104.64 252.62) rotate(-45)"/>
  </g>
  <g>
    <path class="st0" d="M311.28,86.71h56.05c10.35,0,19.32,1.77,26.89,5.3,7.57,3.54,13.76,8.37,18.56,14.49,4.8,6.12,8.36,13.29,10.7,21.49,2.33,8.21,3.5,16.98,3.5,26.32s-1.17,18.12-3.5,26.32c-2.34,8.21-5.9,15.37-10.7,21.49-4.8,6.13-10.98,10.95-18.56,14.49-7.57,3.54-16.54,5.3-26.89,5.3h-56.05V86.71ZM334.95,202.6h23.29c9.21,0,16.76-1.23,22.63-3.69,5.87-2.46,10.48-5.87,13.83-10.23,3.34-4.36,5.62-9.47,6.82-15.34,1.2-5.87,1.8-12.21,1.8-19.03s-.6-13.16-1.8-19.03c-1.2-5.87-3.47-10.98-6.82-15.34-3.35-4.36-7.95-7.76-13.83-10.23-5.87-2.46-13.42-3.69-22.63-3.69h-23.29v96.58Z"/>
    <path class="st0" d="M461.83,178.55c0,3.79.54,7.45,1.61,10.98,1.07,3.54,2.68,6.63,4.83,9.28,2.14,2.65,4.86,4.77,8.14,6.34,3.28,1.58,7.2,2.37,11.74,2.37,6.31,0,11.39-1.36,15.24-4.07,3.85-2.71,6.72-6.78,8.62-12.21h20.45c-1.14,5.3-3.1,10.04-5.87,14.2-2.78,4.17-6.12,7.67-10.04,10.51-3.91,2.84-8.3,4.99-13.16,6.44-4.86,1.45-9.94,2.18-15.24,2.18-7.7,0-14.52-1.26-20.45-3.79-5.94-2.52-10.95-6.06-15.06-10.6-4.1-4.55-7.2-9.97-9.28-16.29-2.08-6.31-3.13-13.26-3.13-20.83,0-6.94,1.1-13.54,3.31-19.79,2.21-6.25,5.36-11.74,9.47-16.48,4.1-4.73,9.06-8.49,14.87-11.27,5.81-2.78,12.37-4.17,19.69-4.17,7.7,0,14.61,1.61,20.74,4.83,6.12,3.22,11.2,7.48,15.24,12.78,4.04,5.3,6.97,11.39,8.81,18.27,1.83,6.88,2.3,13.98,1.42,21.3h-71.96ZM512.2,164.35c-.25-3.41-.98-6.69-2.18-9.85-1.2-3.15-2.84-5.9-4.92-8.24-2.08-2.33-4.61-4.23-7.57-5.68-2.97-1.45-6.28-2.18-9.94-2.18s-7.23.66-10.32,1.99c-3.09,1.33-5.75,3.16-7.95,5.49-2.21,2.34-3.98,5.08-5.3,8.24-1.33,3.16-2.05,6.57-2.18,10.23h50.37Z"/>
    <path class="st0" d="M576.59,170.41l-33.9-46.4h26.13l20.45,30.11,21.4-30.11h25l-33.33,45.26,37.5,52.65h-25.94l-24.81-36.17-24.05,36.17h-25.38l36.93-51.51Z"/>
    <path class="st0" d="M642.11,124.01h16.29v-29.35h21.59v29.35h19.51v16.1h-19.51v52.27c0,2.27.09,4.23.28,5.87.19,1.64.63,3.03,1.33,4.17.69,1.14,1.73,1.99,3.13,2.56,1.39.57,3.28.85,5.68.85,1.52,0,3.03-.03,4.54-.09,1.52-.06,3.03-.28,4.55-.66v16.66c-2.4.25-4.74.5-7.01.76-2.27.25-4.61.38-7.01.38-5.68,0-10.26-.54-13.73-1.61-3.47-1.07-6.19-2.65-8.14-4.73-1.96-2.08-3.28-4.7-3.98-7.86-.69-3.15-1.11-6.75-1.23-10.79v-57.76h-16.29v-16.1Z"/>
    <path class="st0" d="M715.02,124.01h20.26v18.94h.38c.63-2.65,1.86-5.24,3.69-7.76,1.83-2.52,4.04-4.83,6.63-6.91,2.59-2.08,5.46-3.75,8.62-5.02,3.15-1.26,6.37-1.89,9.66-1.89,2.52,0,4.26.07,5.21.19.95.13,1.92.25,2.94.38v20.83c-1.52-.25-3.06-.47-4.64-.66-1.58-.19-3.13-.28-4.64-.28-3.66,0-7.1.73-10.32,2.18-3.22,1.45-6.03,3.6-8.43,6.44-2.4,2.84-4.29,6.34-5.68,10.51-1.39,4.17-2.08,8.97-2.08,14.39v46.59h-21.59v-97.91Z"/>
    <path class="st0" d="M863.68,200.14c0,2.65.35,4.55,1.04,5.68.69,1.14,2.05,1.7,4.07,1.7h2.27c.88,0,1.89-.12,3.03-.38v14.96c-.76.25-1.74.54-2.93.85-1.2.31-2.43.6-3.69.85-1.26.25-2.53.44-3.79.57-1.26.12-2.34.19-3.22.19-4.42,0-8.08-.88-10.98-2.65-2.91-1.77-4.8-4.86-5.68-9.28-4.29,4.17-9.56,7.2-15.81,9.09-6.25,1.89-12.28,2.84-18.09,2.84-4.42,0-8.65-.6-12.69-1.8-4.04-1.2-7.61-2.96-10.7-5.3-3.1-2.33-5.56-5.3-7.39-8.9-1.83-3.6-2.75-7.79-2.75-12.59,0-6.06,1.1-10.98,3.31-14.77,2.21-3.79,5.11-6.75,8.71-8.9,3.6-2.14,7.64-3.69,12.12-4.64,4.48-.95,9-1.67,13.54-2.18,3.91-.76,7.64-1.29,11.17-1.61,3.53-.31,6.66-.85,9.37-1.61,2.71-.76,4.86-1.92,6.44-3.5,1.58-1.58,2.37-3.94,2.37-7.1,0-2.78-.66-5.05-1.99-6.82-1.33-1.77-2.97-3.12-4.92-4.07-1.96-.95-4.14-1.58-6.53-1.89-2.4-.31-4.67-.47-6.82-.47-6.06,0-11.05,1.26-14.96,3.79-3.91,2.53-6.12,6.44-6.63,11.74h-21.59c.38-6.31,1.89-11.55,4.54-15.72,2.65-4.17,6.03-7.51,10.13-10.04,4.1-2.52,8.74-4.29,13.92-5.3,5.18-1.01,10.48-1.52,15.91-1.52,4.8,0,9.53.51,14.2,1.52,4.67,1.01,8.87,2.65,12.59,4.92,3.72,2.27,6.72,5.21,9,8.81s3.41,7.99,3.41,13.16v50.37ZM842.09,172.87c-3.28,2.15-7.32,3.44-12.12,3.88-4.8.44-9.6,1.11-14.39,1.99-2.27.38-4.48.92-6.63,1.61-2.15.7-4.04,1.64-5.68,2.84-1.64,1.2-2.94,2.78-3.88,4.73-.95,1.96-1.42,4.33-1.42,7.1,0,2.4.69,4.42,2.08,6.06,1.39,1.64,3.06,2.94,5.02,3.88,1.96.95,4.1,1.61,6.44,1.99,2.33.38,4.45.57,6.34.57,2.4,0,4.99-.31,7.76-.95,2.77-.63,5.4-1.7,7.86-3.22,2.46-1.52,4.51-3.44,6.15-5.78,1.64-2.33,2.46-5.21,2.46-8.62v-16.1Z"/>
  </g>
</svg>